<?xml version="1.0" encoding="utf-8"?>
<?xml-stylesheet type="text/xsl" href="rss1.xsl"?>
<rss version="2.0" xmlns:atom="http://www.w3.org/2005/Atom" xmlns:content="http://purl.org/rss/1.0/modules/content/" xmlns:dc="http://purl.org/dc/elements/1.1/" xmlns:media="http://search.yahoo.com/mrss/">
<channel>
 <title>Getty</title>
 <link>http://www.gettyimg.com/</link>
 <atom:link href="http://www.gettyimg.com/" rel="self" type="application/rss+xml" />

 
                <item>
                <title><![CDATA[【Apple Music】WEB-RiP - Bingo Players - Cry (Just A Little) (720p)]]></title>
                <link><![CDATA[https://sharemania.us/threads/bingo-players-cry-just-a-little-720p.249869/]]></link>
                <description><![CDATA[<article>
<blockquote class="messageText SelectQuoteContainer ugc baseHtml">
<img src="https://i.postimg.cc/k5nzBCM6/Bingo-Players-Cry-Just-A-Little-mp4.jpg" class="bbCodeImage LbImage" alt="[​IMG]" data-url="https://i.postimg.cc/k5nzBCM6/Bingo-Players-Cry-Just-A-Little-mp4.jpg" style=""><br>
<br>
<div class="bbCodeBlock bbCodeCode">
<div class="type">Code:</div>
<pre>General
Complete name                  : G:\Новая папка\Bingo Players - Cry (Just A Little).mp4
Format                         : MPEG-4
Format profile                 : Base Media
Codec ID                       : isom (isom/iso2/avc1/mp41)
File size                      : 94.0 MiB
Duration                       : 3 min 13 s
Overall bit rate               : 4 076 kb/s
Frame rate                     : 25.000 FPS
Movie name                     : Cry (Just A Little)
Performer                      : Bingo Players
Genre                          : Dance
ContentType                    : Music Video
Recorded date                  : 2011-06-14 07:00:00 UTC
Writing application            : Lavf56.30.100
Copyright                      : ℗ © 2011 Hysteria, SpinninRecords.nl

Video
ID                             : 1
Format                         : AVC
Format/Info                    : Advanced Video Codec
Format profile                 : High@L3.1
Format settings                : CABAC / 5 Ref Frames
Format settings, CABAC         : Yes
Format settings, Reference fra : 5 frames
Format settings, Slice count   : 4 slices per frame
Codec ID                       : avc1
Codec ID/Info                  : Advanced Video Coding
Duration                       : 3 min 13 s
Bit rate                       : 3 810 kb/s
Width                          : 1 280 pixels
Height                         : 680 pixels
Display aspect ratio           : 1.882
Frame rate mode                : Constant
Frame rate                     : 25.000 FPS
Color space                    : YUV
Chroma subsampling             : 4:2:0
Bit depth                      : 8 bits
Scan type                      : Progressive
Bits/(Pixel*Frame)             : 0.175
Stream size                    : 87.9 MiB (93%)
Color range                    : Limited
Color primaries                : BT.709
Transfer characteristics       : BT.709
Matrix coefficients            : BT.709
Codec configuration box        : avcC

Audio
ID                             : 2
Format                         : AAC LC
Format/Info                    : Advanced Audio Codec Low Complexity
Codec ID                       : mp4a-40-2
Duration                       : 3 min 13 s
Duration_LastFrame             : -12 ms
Bit rate mode                  : Constant
Bit rate                       : 265 kb/s
Channel(s)                     : 2 channels
Channel layout                 : L R
Sampling rate                  : 48.0 kHz
Frame rate                     : 46.875 FPS (1024 SPF)
Compression mode               : Lossy
Stream size                    : 6.00 MiB (6%)
Default                        : Yes
Alternate group                : 1

</pre>
</div>
<div class="bbCodeBlock bbCodeVfcHH HiddenContent">
<div class="attribution type">Hidden Content:</div>
<blockquote>You must either reply or click 'Like' to see the hidden information contained here.</blockquote>
</div>
<div class="messageTextEndMarker">&nbsp;</div>
</blockquote>
</article>]]></description>
                <author><![CDATA[vitalya3]]></author>
                </item>

                
                <item>
                <title><![CDATA[【Apple Music】WEB-RiP - Becky Hill - Multiply (1080p)]]></title>
                <link><![CDATA[https://sharemania.us/threads/becky-hill-multiply-1080p.249867/]]></link>
                <description><![CDATA[<article>
<blockquote class="messageText SelectQuoteContainer ugc baseHtml">
<img src="https://i.postimg.cc/PqWwPb75/Direc-ia-5-Lidia-Buble-Forever-Love-mp4.jpg" class="bbCodeImage LbImage" alt="[​IMG]" data-url="https://i.postimg.cc/PqWwPb75/Direc-ia-5-Lidia-Buble-Forever-Love-mp4.jpg" style=""><br>
<br>
<div class="bbCodeBlock bbCodeCode">
<div class="type">Code:</div>
<pre>General
Complete name                  : G:\Новая папка\Becky Hill - Multiply.mp4
Format                         : MPEG-4
Format profile                 : Base Media
Codec ID                       : isom (isom/iso2/avc1/mp41)
File size                      : 180 MiB
Duration                       : 2 min 32 s
Overall bit rate               : 9 932 kb/s
Frame rate                     : 25.000 FPS
Movie name                     : Multiply
Performer                      : Becky Hill
Genre                          : Dance
ContentType                    : Music Video
Recorded date                  : 2024-06-21 07:00:00 UTC
Writing application            : Lavf56.30.100
Copyright                      : ℗ 2024 Universal Music Operations Limited

Video
ID                             : 1
Format                         : AVC
Format/Info                    : Advanced Video Codec
Format profile                 : High@L4
Format settings                : CABAC / 4 Ref Frames
Format settings, CABAC         : Yes
Format settings, Reference fra : 4 frames
Format settings, Slice count   : 8 slices per frame
Codec ID                       : avc1
Codec ID/Info                  : Advanced Video Coding
Duration                       : 2 min 32 s
Bit rate                       : 9 673 kb/s
Width                          : 1 920 pixels
Height                         : 1 080 pixels
Display aspect ratio           : 16:9
Frame rate mode                : Constant
Frame rate                     : 25.000 FPS
Color space                    : YUV
Chroma subsampling             : 4:2:0
Bit depth                      : 8 bits
Scan type                      : Progressive
Bits/(Pixel*Frame)             : 0.187
Stream size                    : 175 MiB (97%)
Color range                    : Limited
Color primaries                : BT.709
Transfer characteristics       : BT.709
Matrix coefficients            : BT.709
Codec configuration box        : avcC

Audio
ID                             : 2
Format                         : AAC LC
Format/Info                    : Advanced Audio Codec Low Complexity
Codec ID                       : mp4a-40-2
Duration                       : 2 min 32 s
Duration_LastFrame             : -18 ms
Bit rate mode                  : Constant
Bit rate                       : 256 kb/s
Channel(s)                     : 2 channels
Channel layout                 : L R
Sampling rate                  : 48.0 kHz
Frame rate                     : 46.875 FPS (1024 SPF)
Compression mode               : Lossy
Stream size                    : 4.64 MiB (3%)
Default                        : Yes
Alternate group                : 1

</pre>
</div>
<div class="bbCodeBlock bbCodeVfcHH HiddenContent">
<div class="attribution type">Hidden Content:</div>
<blockquote>You must either reply or click 'Like' to see the hidden information contained here.</blockquote>
</div>
<div class="messageTextEndMarker">&nbsp;</div>
</blockquote>
</article>]]></description>
                <author><![CDATA[vitalya3]]></author>
                </item>

                
                <item>
                <title><![CDATA[【Requests】[REQ CAP] - [REQ FLAC] Sarah Kang]]></title>
                <link><![CDATA[https://sharemania.us/threads/req-flac-sarah-kang.249866/]]></link>
                <description><![CDATA[<article>
<blockquote class="messageText SelectQuoteContainer ugc baseHtml">
Can i have album of Sarah Kang - How I remember ; and Sarah Kang - Hopeless Romantic. Thank you
<div class="messageTextEndMarker">&nbsp;</div>
</blockquote>
</article>]]></description>
                <author><![CDATA[shurley]]></author>
                </item>

                
                <item>
                <title><![CDATA[【Requests】[REQ VID] - Big City Greens The Movie Spacecation (2024) 720p or 1080p]]></title>
                <link><![CDATA[https://sharemania.us/threads/big-city-greens-the-movie-spacecation-2024-720p-or-1080p.249868/]]></link>
                <description><![CDATA[<article>
<blockquote class="messageText SelectQuoteContainer ugc baseHtml">
<span style="font-size: 22px"><b><a href="https://sharemania.us/search/?searchform=1&amp;q=big+city+greens+spacecation" class="internalLink"><i>big city greens spacecation</i></a><i> please</i></b><br>
<b><img src="https://rapidmoviez.cr/data/images/movies/2024-06/big-city-greens--the-movie.jpg" class="bbCodeImage LbImage" alt="[​IMG]" data-url="https://rapidmoviez.cr/data/images/movies/2024-06/big-city-greens--the-movie.jpg" style=""></b></span>
<div class="messageTextEndMarker">&nbsp;</div>
</blockquote>
</article>]]></description>
                <author><![CDATA[cinimodyeslah123]]></author>
                </item>

                </channel></rss>